<svg xmlns="http://www.w3.org/2000/svg" width="136" height="453.587" fill="white" xmlns:v="https://vecta.io/nano"><path d="M1.333 426.92l39.996-39.997-39.996-40.001L28 320.256l40 40 40-40 26.667 26.667-40 40.001 40 39.997L108 453.587 68 413.59l-40 39.997L1.333 426.92m.004-320.251l39.999-40.001L1.337 26.665 28 .001l40.003 40 40-40 26.667 26.664-40.004 40.003 40.004 40.001-26.667 26.665-40-40.001-39.996 40.001-26.67-26.665"/><path d="M1.337 266.933l39.999-39.999-39.999-40.001 26.668-26.668 39.998 40.001 40-40.001 26.667 26.668-39.999 40.001 39.999 39.999-26.667 26.667-40-39.999-39.998 39.999-26.668-26.667"/></svg>