<?xml version="1.0" encoding="UTF-8"?>
<svg id="Layer_2" data-name="Layer 2" xmlns="http://www.w3.org/2000/svg" viewBox="0 0 595.27557 841.88983">
  <defs>
    <style>
      .cls-1 {
        fill: #ec0000;
        stroke-width: 0px;
      }
    </style>
  </defs>
  <path class="cls-1" d="M85.17624,67.64415h6.4006l-3.16982-8.35091h-.06096l-3.16982,8.35091h0ZM86.18245,55.48355h4.57147l7.92416,19.81044h-4.23659l-1.64547-4.3585h-8.80806l-1.64587,4.3585h-4.08419l7.92456-19.81044h0ZM101.17815,60.23813h3.53558v2.0417h.06094c.762-1.55403,2.10306-2.40745,3.83997-2.40745,1.95066,0,3.41367.85342,4.32764,2.56024.91477-1.64587,2.59073-2.56024,4.72426-2.56024,3.71804,0,5.51632,2.07258,5.51632,6.30878v9.11284h-3.77902v-8.47279c0-2.4688-.8534-3.65748-2.62119-3.65748s-2.71224,1.3106-2.71224,3.7794v8.35087h-3.77941v-8.47279c0-2.49928-.82294-3.65748-2.62081-3.65748-1.73732,0-2.71264,1.34108-2.71264,3.7794v8.35087h-3.77941v-15.05586h0ZM130.13327,68.98523c-2.04211-.60958-4.02284-1.70683-4.02284-4.44995,0-2.7732,2.31602-4.6629,5.75975-4.6629,2.31642,0,4.11468.82294,5.12049,2.3465l-2.16401,2.16401c-.762-.94446-1.79826-1.463-2.92562-1.463-1.2801,0-2.07256.5791-2.07256,1.49347,0,1.21916,1.28011,1.43252,3.13934,2.01163,2.04169.60957,4.02284,1.70643,4.02284,4.44954,0,2.83456-2.43834,4.78521-6.03447,4.78521-2.34688,0-4.23618-.82293-5.33383-2.37736l2.16402-2.16402c.82293.97534,1.92017,1.49347,3.13933,1.49347,1.46301,0,2.34651-.60957,2.34651-1.61539,0-1.21876-1.27973-1.43212-3.13896-2.01122h0ZM140.98381,69.89921v-6.52213h-2.59073v-3.13895h1.37156c1.24925,0,1.73691-.48767,1.73691-1.73735v-2.34677h3.2308v4.08412h3.65748v3.13895h-3.65748v6.52213c0,1.463.76157,2.28593,2.16362,2.28593.42671,0,.94484-.06096,1.25003-.1524v3.16982c-.4576.12192-1.3106.21335-1.98115.21335-3.41364,0-5.18104-1.8897-5.18104-5.5167h0ZM154.05893,66.24211h7.58892c-.24384-1.98114-1.76779-3.32221-3.80988-3.32221-2.04172,0-3.56567,1.34108-3.77903,3.32221h0ZM150.24906,67.76607c0-4.66329,3.13934-7.89368,7.61937-7.89368s7.58889,3.19991,7.58889,7.80225c0,.36575-.06057.94446-.12191,1.34068h-11.27648c.27393,2.0421,2.01163,3.41367,4.23622,3.41367,1.64587,0,3.07837-.60959,4.02284-1.70683l2.28633,2.22497c-1.37157,1.76779-3.74893,2.71264-6.49204,2.71264-4.63242,0-7.86321-3.26126-7.86321-7.89368h0ZM168.59786,60.23813h3.56524v2.49928h.06137c.73111-1.70682,2.07218-2.62119,3.83996-2.62119.4572,0,1.09726.06095,1.34109.15239v3.59613c-.42672-.12192-1.24965-.21335-1.85922-.21335-1.9198,0-3.16985,1.463-3.16985,3.71844v7.92416h-3.7786v-15.05586h0ZM190.6639,67.76607c0-2.71264-1.67673-4.5109-4.14514-4.5109-2.49931,0-4.17524,1.82874-4.17524,4.5109s1.67593,4.5105,4.17524,4.5105c2.46841,0,4.14514-1.79826,4.14514-4.5105h0ZM178.47268,67.82703c0-4.6633,3.07839-7.95465,7.4365-7.95465,2.01162,0,3.65707.88389,4.69338,2.49889h.06134v-9.17342h3.77901v22.09614h-3.56565v-2.34689h-.06134c-.97494,1.70683-2.80408,2.71264-4.90673,2.71264-4.35812,0-7.4365-3.26126-7.4365-7.83272h0ZM206.69629,69.68625v-.85381l-2.49966.03088c-1.98076.03048-3.04751.7311-3.04751,2.0417,0,1.1582.91397,1.98114,2.19448,1.98114,1.98114,0,3.35269-1.31061,3.35269-3.19991h0ZM197.33962,70.99645c0-2.89511,2.40744-4.63242,6.43069-4.6629l2.92598-.03047v-.48767c0-1.76779-1.12811-2.68177-3.16982-2.68177-1.34108,0-2.52976.51775-3.3527,1.4626l-2.28552-2.22497c1.31019-1.615,3.41324-2.49889,6.00397-2.49889,4.02283,0,6.58269,2.1945,6.58269,5.69919v5.9735c0,.54863.24423.79246.85383.79246h.27431v2.95646h-1.76779c-1.43252,0-2.40785-.67053-2.71267-1.76779h-.06095c-.94443,1.37157-2.49886,2.13353-4.38897,2.13353-3.16902,0-5.33304-1.8897-5.33304-4.66329h0ZM214.5599,60.23813h3.53478v2.0417h.06137c.76195-1.55403,2.10264-2.40745,3.83996-2.40745,1.95065,0,3.41367.85342,4.32804,2.56024.91437-1.64587,2.5903-2.56024,4.72384-2.56024,3.71846,0,5.51672,2.07258,5.51672,6.30878v9.11284h-3.77939v-8.47279c0-2.4688-.85383-3.65748-2.62084-3.65748-1.76776,0-2.71303,1.3106-2.71303,3.7794v8.35087h-3.77898v-8.47279c0-2.49928-.8229-3.65748-2.6212-3.65748-1.73691,0-2.71224,1.34108-2.71224,3.7794v8.35087h-3.77901v-15.05586h0ZM79.08122,33.70986c0-6.00414,4.20572-10.2404,10.14874-10.2404,3.01742,0,5.54679.97528,7.34505,2.92582l-2.6212,2.49909c-1.12733-1.24953-2.74271-1.9809-4.6629-1.9809-3.59614,0-6.09541,2.80388-6.09541,6.79639,0,4.08396,2.43833,6.9184,5.94303,6.9184,3.20029,0,5.42487-1.82863,5.42487-4.48019v-.51818h-4.78482v-3.32203h8.80806v3.0783c0,5.05925-3.9318,8.62503-9.57003,8.62503-5.8211,0-9.93539-4.26679-9.93539-10.30133h0ZM104.95756,34.59375h7.58888c-.24422-1.98109-1.76778-3.32206-3.80987-3.32206s-3.56605,1.34097-3.77901,3.32206h0ZM101.14767,36.11755c0-4.66302,3.13933-7.89364,7.61937-7.89364,4.48041,0,7.58888,3.20006,7.58888,7.8022,0,.36568-.06094.94474-.1219,1.34096h-11.27647c.2743,2.04199,2.01121,3.41347,4.23619,3.41347,1.64588,0,3.07839-.60939,4.02284-1.70664l2.28594,2.22482c-1.37156,1.7677-3.74853,2.71248-6.49166,2.71248-4.63241,0-7.8632-3.26099-7.8632-7.89364h0ZM119.49606,28.58957h3.53518v2.04199h.06095c.762-1.55435,2.10306-2.40764,3.84037-2.40764,1.95027,0,3.41365.8533,4.32764,2.56012.91437-1.64574,2.59033-2.56012,4.72386-2.56012,3.71845,0,5.51631,2.07249,5.51631,6.30877v9.11281h-3.7786v-8.47271c0-2.46872-.85381-3.65736-2.62122-3.65736-1.76778,0-2.71262,1.31059-2.71262,3.77936v8.35072h-3.77901v-8.47271c0-2.49904-.82295-3.65736-2.6212-3.65736-1.73732,0-2.71265,1.34115-2.71265,3.77936v8.35072h-3.77901v-15.05592h0ZM148.29839,34.59375h7.5889c-.24384-1.98109-1.76779-3.32206-3.8099-3.32206-2.0417,0-3.56565,1.34097-3.77901,3.32206h0ZM144.48851,36.11755c0-4.66302,3.13936-7.89364,7.61937-7.89364,4.48044,0,7.58889,3.20006,7.58889,7.8022,0,.36568-.06054.94474-.12152,1.34096h-11.27685c.27432,2.04199,2.01163,3.41347,4.23621,3.41347,1.64626,0,3.07838-.60939,4.02364-1.70664l2.28552,2.22482c-1.37156,1.7677-3.74893,2.71248-6.49163,2.71248-4.63282,0-7.86361-3.26099-7.86361-7.89364h0ZM165.70195,34.59375h7.58888c-.24382-1.98109-1.76776-3.32206-3.80987-3.32206-2.04171,0-3.56565,1.34097-3.77901,3.32206h0ZM161.89206,36.11755c0-4.66302,3.13934-7.89364,7.61938-7.89364s7.58888,3.20006,7.58888,7.8022c0,.36568-.06057.94474-.12191,1.34096h-11.27647c.27392,2.04199,2.01162,3.41347,4.23621,3.41347,1.64587,0,3.07837-.60939,4.02323-1.70664l2.28594,2.22482c-1.37157,1.7677-3.74893,2.71248-6.49204,2.71248-4.63244,0-7.86321-3.26099-7.86321-7.89364h0ZM180.24086,28.58957h3.56524v2.04199h.06137c.70062-1.49327,2.22496-2.40764,3.99235-2.40764,3.77902,0,5.72968,2.16393,5.72968,6.30877v9.11281h-3.77942v-8.38127c0-2.56016-.91397-3.74881-2.83414-3.74881-1.91979,0-2.95649,1.34115-2.95649,3.84024v8.28984h-3.7786v-15.05592h0ZM198.43608,38.25092v-6.52212h-2.59074v-3.13924h1.37156c1.24966,0,1.73732-.48761,1.73732-1.73718v-2.34677h3.23038v4.08395h3.6575v3.13924h-3.6575v6.52212c0,1.46292.76196,2.28589,2.16399,2.28589.42671,0,.94488-.06088,1.24966-.15247v3.16975c-.45717.12195-1.3102.21334-1.98112.21334-3.41367,0-5.18105-1.88966-5.18105-5.51651h0ZM211.5116,34.59375h7.58851c-.24384-1.98109-1.7674-3.32206-3.80988-3.32206-2.04173,0-3.56527,1.34097-3.77862,3.32206h0ZM207.70172,36.11755c0-4.66302,3.13895-7.89364,7.61938-7.89364,4.48002,0,7.58889,3.20006,7.58889,7.8022,0,.36568-.06095.94474-.12193,1.34096h-11.27646c.27392,2.04199,2.01163,3.41347,4.23621,3.41347,1.64585,0,3.07799-.60939,4.02283-1.70664l2.28594,2.22482c-1.37157,1.7677-3.74857,2.71248-6.49166,2.71248-4.63242,0-7.8632-3.26099-7.8632-7.89364h0Z"/>
  <polygon class="cls-1" points="19.84252 146.58416 31.71634 134.70997 19.84252 122.83463 27.75916 114.91798 39.63412 126.79294 51.50908 114.91798 59.42572 122.83463 47.55076 134.70997 59.42572 146.58416 51.50908 154.5008 39.63412 142.62662 27.75916 154.5008 19.84252 146.58416 19.84252 146.58416"/>
  <polygon class="cls-1" points="19.84368 51.50964 31.71863 39.63428 19.84368 27.75857 27.75916 19.84268 39.63527 31.71764 51.51023 19.84268 59.42691 27.75857 47.55076 39.63428 59.42691 51.50964 51.51023 59.42588 39.63527 47.55052 27.76146 59.42588 19.84368 51.50964 19.84368 51.50964"/>
  <polygon class="cls-1" points="19.84368 99.08787 31.71863 87.2133 19.84368 75.33794 27.76071 67.4209 39.63527 79.29626 51.51023 67.4209 59.42691 75.33794 47.5523 87.2133 59.42691 99.08787 51.51023 107.00411 39.63527 95.12994 27.76071 107.00411 19.84368 99.08787 19.84368 99.08787"/>
</svg>